<?xml version="1.0" encoding="UTF-8" standalone="no"?>
<!DOCTYPE svg PUBLIC "-//W3C//DTD SVG 1.1//EN"
 "http://www.w3.org/Graphics/SVG/1.1/DTD/svg11.dtd">
<!-- Generated by graphviz version 2.43.0 (0)
 -->
<!-- Title: pprof_1.exe Pages: 1 -->
<svg width="100%" height="100%" xmlns="http://www.w3.org/2000/svg" xmlns:xlink="http://www.w3.org/1999/xlink">
<script type="text/ecmascript"><![CDATA[
/**
 *  SVGPan library 1.2.2
 * ======================
 *
 * Given an unique existing element with id "viewport" (or when missing, the
 * first g-element), including the library into any SVG adds the following
 * capabilities:
 *
 *  - Mouse panning
 *  - Mouse zooming (using the wheel)
 *  - Object dragging
 *
 * You can configure the behaviour of the pan/zoom/drag with the variables
 * listed in the CONFIGURATION section of this file.
 *
 * Known issues:
 *
 *  - Zooming (while panning) on Safari has still some issues
 *
 * Releases:
 *
 * 1.2.2, Tue Aug 30 17:21:56 CEST 2011, Andrea Leofreddi
 *	- Fixed viewBox on root tag (#7)
 *	- Improved zoom speed (#2)
 *
 * 1.2.1, Mon Jul  4 00:33:18 CEST 2011, Andrea Leofreddi
 *	- Fixed a regression with mouse wheel (now working on Firefox 5)
 *	- Working with viewBox attribute (#4)
 *	- Added "use strict;" and fixed resulting warnings (#5)
 *	- Added configuration variables, dragging is disabled by default (#3)
 *
 * 1.2, Sat Mar 20 08:42:50 GMT 2010, Zeng Xiaohui
 *	Fixed a bug with browser mouse handler interaction
 *
 * 1.1, Wed Feb  3 17:39:33 GMT 2010, Zeng Xiaohui
 *	Updated the zoom code to support the mouse wheel on Safari/Chrome
 *
 * 1.0, Andrea Leofreddi
 *	First release
 *
 * This code is licensed under the following BSD license:
 *
 * Copyright 2009-2017 Andrea Leofreddi <a.leofreddi@vleo.net>. All rights reserved.
 *
 * Redistribution and use in source and binary forms, with or without modification, are
 * permitted provided that the following conditions are met:
 *
 *    1. Redistributions of source code must retain the above copyright
 *       notice, this list of conditions and the following disclaimer.
 *    2. Redistributions in binary form must reproduce the above copyright
 *       notice, this list of conditions and the following disclaimer in the
 *       documentation and/or other materials provided with the distribution.
 *    3. Neither the name of the copyright holder nor the names of its
 *       contributors may be used to endorse or promote products derived from
 *       this software without specific prior written permission.
 *
 * THIS SOFTWARE IS PROVIDED BY COPYRIGHT HOLDERS AND CONTRIBUTORS ''AS IS'' AND ANY EXPRESS
 * OR IMPLIED WARRANTIES, INCLUDING, BUT NOT LIMITED TO, THE IMPLIED WARRANTIES OF MERCHANTABILITY
 * AND FITNESS FOR A PARTICULAR PURPOSE ARE DISCLAIMED. IN NO EVENT SHALL COPYRIGHT HOLDERS OR
 * CONTRIBUTORS BE LIABLE FOR ANY DIRECT, INDIRECT, INCIDENTAL, SPECIAL, EXEMPLARY, OR
 * CONSEQUENTIAL DAMAGES (INCLUDING, BUT NOT LIMITED TO, PROCUREMENT OF SUBSTITUTE GOODS OR
 * SERVICES; LOSS OF USE, DATA, OR PROFITS; OR BUSINESS INTERRUPTION) HOWEVER CAUSED AND ON
 * ANY THEORY OF LIABILITY, WHETHER IN CONTRACT, STRICT LIABILITY, OR TORT (INCLUDING
 * NEGLIGENCE OR OTHERWISE) ARISING IN ANY WAY OUT OF THE USE OF THIS SOFTWARE, EVEN IF
 * ADVISED OF THE POSSIBILITY OF SUCH DAMAGE.
 *
 * The views and conclusions contained in the software and documentation are those of the
 * authors and should not be interpreted as representing official policies, either expressed
 * or implied, of Andrea Leofreddi.
 */

"use strict";

/// CONFIGURATION
/// ====>

var enablePan = 1; // 1 or 0: enable or disable panning (default enabled)
var enableZoom = 1; // 1 or 0: enable or disable zooming (default enabled)
var enableDrag = 0; // 1 or 0: enable or disable dragging (default disabled)
var zoomScale = 0.2; // Zoom sensitivity

/// <====
/// END OF CONFIGURATION

var root = document.documentElement;

var state = 'none', svgRoot = null, stateTarget, stateOrigin, stateTf;

setupHandlers(root);

/**
 * Register handlers
 */
function setupHandlers(root){
	setAttributes(root, {
		"onmouseup" : "handleMouseUp(evt)",
		"onmousedown" : "handleMouseDown(evt)",
		"onmousemove" : "handleMouseMove(evt)",
		//"onmouseout" : "handleMouseUp(evt)", // Decomment this to stop the pan functionality when dragging out of the SVG element
	});

	if(navigator.userAgent.toLowerCase().indexOf('webkit') >= 0)
		window.addEventListener('mousewheel', handleMouseWheel, false); // Chrome/Safari
	else
		window.addEventListener('DOMMouseScroll', handleMouseWheel, false); // Others
}

/**
 * Retrieves the root element for SVG manipulation. The element is then cached into the svgRoot global variable.
 */
function getRoot(root) {
	if(svgRoot == null) {
		var r = root.getElementById("viewport") ? root.getElementById("viewport") : root.documentElement, t = r;

		while(t != root) {
			if(t.getAttribute("viewBox")) {
				setCTM(r, t.getCTM());

				t.removeAttribute("viewBox");
			}

			t = t.parentNode;
		}

		svgRoot = r;
	}

	return svgRoot;
}

/**
 * Instance an SVGPoint object with given event coordinates.
 */
function getEventPoint(evt) {
	var p = root.createSVGPoint();

	p.x = evt.clientX;
	p.y = evt.clientY;

	return p;
}

/**
 * Sets the current transform matrix of an element.
 */
function setCTM(element, matrix) {
	var s = "matrix(" + matrix.a + "," + matrix.b + "," + matrix.c + "," + matrix.d + "," + matrix.e + "," + matrix.f + ")";

	element.setAttribute("transform", s);
}

/**
 * Dumps a matrix to a string (useful for debug).
 */
function dumpMatrix(matrix) {
	var s = "[ " + matrix.a + ", " + matrix.c + ", " + matrix.e + "\n  " + matrix.b + ", " + matrix.d + ", " + matrix.f + "\n  0, 0, 1 ]";

	return s;
}

/**
 * Sets attributes of an element.
 */
function setAttributes(element, attributes){
	for (var i in attributes)
		element.setAttributeNS(null, i, attributes[i]);
}

/**
 * Handle mouse wheel event.
 */
function handleMouseWheel(evt) {
	if(!enableZoom)
		return;

	if(evt.preventDefault)
		evt.preventDefault();

	evt.returnValue = false;

	var svgDoc = evt.target.ownerDocument;

	var delta;

	if(evt.wheelDelta)
		delta = evt.wheelDelta / 360; // Chrome/Safari
	else
		delta = evt.detail / -9; // Mozilla

	var z = Math.pow(1 + zoomScale, delta);

	var g = getRoot(svgDoc);
	
	var p = getEventPoint(evt);

	p = p.matrixTransform(g.getCTM().inverse());

	// Compute new scale matrix in current mouse position
	var k = root.createSVGMatrix().translate(p.x, p.y).scale(z).translate(-p.x, -p.y);

        setCTM(g, g.getCTM().multiply(k));

	if(typeof(stateTf) == "undefined")
		stateTf = g.getCTM().inverse();

	stateTf = stateTf.multiply(k.inverse());
}

/**
 * Handle mouse move event.
 */
function handleMouseMove(evt) {
	if(evt.preventDefault)
		evt.preventDefault();

	evt.returnValue = false;

	var svgDoc = evt.target.ownerDocument;

	var g = getRoot(svgDoc);

	if(state == 'pan' && enablePan) {
		// Pan mode
		var p = getEventPoint(evt).matrixTransform(stateTf);

		setCTM(g, stateTf.inverse().translate(p.x - stateOrigin.x, p.y - stateOrigin.y));
	} else if(state == 'drag' && enableDrag) {
		// Drag mode
		var p = getEventPoint(evt).matrixTransform(g.getCTM().inverse());

		setCTM(stateTarget, root.createSVGMatrix().translate(p.x - stateOrigin.x, p.y - stateOrigin.y).multiply(g.getCTM().inverse()).multiply(stateTarget.getCTM()));

		stateOrigin = p;
	}
}

/**
 * Handle click event.
 */
function handleMouseDown(evt) {
	if(evt.preventDefault)
		evt.preventDefault();

	evt.returnValue = false;

	var svgDoc = evt.target.ownerDocument;

	var g = getRoot(svgDoc);

	if(
		evt.target.tagName == "svg"
		|| !enableDrag // Pan anyway when drag is disabled and the user clicked on an element
	) {
		// Pan mode
		state = 'pan';

		stateTf = g.getCTM().inverse();

		stateOrigin = getEventPoint(evt).matrixTransform(stateTf);
	} else {
		// Drag mode
		state = 'drag';

		stateTarget = evt.target;

		stateTf = g.getCTM().inverse();

		stateOrigin = getEventPoint(evt).matrixTransform(stateTf);
	}
}

/**
 * Handle mouse button release event.
 */
function handleMouseUp(evt) {
	if(evt.preventDefault)
		evt.preventDefault();

	evt.returnValue = false;

	var svgDoc = evt.target.ownerDocument;

	if(state == 'pan' || state == 'drag') {
		// Quit pan mode
		state = '';
	}
}
]]></script><g id="viewport" transform="scale(0.5,0.5) translate(0,0)"><g id="graph0" class="graph" transform="scale(1 1) rotate(0) translate(4 1636)">
<title>pprof_1.exe</title>
<polygon fill="white" stroke="transparent" points="-4,4 -4,-1636 1482,-1636 1482,4 -4,4"/>
<g id="clust1" class="cluster">
<title>cluster_L</title>
<polygon fill="none" stroke="black" points="8,-1455 8,-1624 1022,-1624 1022,-1455 8,-1455"/>
</g>
<!-- File: pprof_1.exe -->
<g id="node1" class="node">
<title>File: pprof_1.exe</title>
<g id="a_node1"><a xlink:title="pprof_1.exe">
<polygon fill="#f8f8f8" stroke="black" points="1014,-1616 16,-1616 16,-1463 1014,-1463 1014,-1616"/>
<text text-anchor="start" x="24" y="-1599.2" font-family="Times,serif" font-size="16.00">File: pprof_1.exe</text>
<text text-anchor="start" x="24" y="-1581.2" font-family="Times,serif" font-size="16.00">Build ID: C:\Users\User\GolandProjects\go_web_service\4\pprof\pprof_1.exe2025&#45;02&#45;17 16:49:22.1643018 +0300 MSK</text>
<text text-anchor="start" x="24" y="-1563.2" font-family="Times,serif" font-size="16.00">Type: alloc_objects</text>
<text text-anchor="start" x="24" y="-1545.2" font-family="Times,serif" font-size="16.00">Time: Feb 17, 2025 at 5:39pm (MSK)</text>
<text text-anchor="start" x="24" y="-1527.2" font-family="Times,serif" font-size="16.00">Showing nodes accounting for 37260446, 98.46% of 37842817 total</text>
<text text-anchor="start" x="24" y="-1509.2" font-family="Times,serif" font-size="16.00">Dropped 94 nodes (cum &lt;= 189214)</text>
<text text-anchor="start" x="24" y="-1472.2" font-family="Times,serif" font-size="16.00">See https://git.io/JfYMW for how to read the graph</text>
</a>
</g>
</g>
<!-- N1 -->
<g id="node1" class="node">
<title>N1</title>
<g id="a_node1"><a xlink:title="net/http.(*conn).serve (37808999)">
<polygon fill="#edd5d5" stroke="#b20000" points="1154,-1568.5 1032,-1568.5 1032,-1510.5 1154,-1510.5 1154,-1568.5"/>
<text text-anchor="middle" x="1093" y="-1557.3" font-family="Times,serif" font-size="9.00">http</text>
<text text-anchor="middle" x="1093" y="-1547.3" font-family="Times,serif" font-size="9.00">(*conn)</text>
<text text-anchor="middle" x="1093" y="-1537.3" font-family="Times,serif" font-size="9.00">serve</text>
<text text-anchor="middle" x="1093" y="-1527.3" font-family="Times,serif" font-size="9.00">21846 (0.058%)</text>
<text text-anchor="middle" x="1093" y="-1517.3" font-family="Times,serif" font-size="9.00">of 37808999 (99.91%)</text>
</a>
</g>
</g>
<!-- N13 -->
<g id="node13" class="node">
<title>N13</title>
<g id="a_node13"><a xlink:title="net/http.serverHandler.ServeHTTP (37664629)">
<polygon fill="#edd5d5" stroke="#b20000" points="1150.5,-1412 1035.5,-1412 1035.5,-1368 1150.5,-1368 1150.5,-1412"/>
<text text-anchor="middle" x="1093" y="-1401.6" font-family="Times,serif" font-size="8.00">http</text>
<text text-anchor="middle" x="1093" y="-1392.6" font-family="Times,serif" font-size="8.00">serverHandler</text>
<text text-anchor="middle" x="1093" y="-1383.6" font-family="Times,serif" font-size="8.00">ServeHTTP</text>
<text text-anchor="middle" x="1093" y="-1374.6" font-family="Times,serif" font-size="8.00">0 of 37664629 (99.53%)</text>
</a>
</g>
</g>
<!-- N1&#45;&gt;N13 -->
<g id="edge12" class="edge">
<title>N1&#45;&gt;N13</title>
<g id="a_edge12"><a xlink:title="net/http.(*conn).serve &#45;&gt; net/http.serverHandler.ServeHTTP (37664629)">
<path fill="none" stroke="#b20000" stroke-width="5" d="M1093,-1510.41C1093,-1485.28 1093,-1448.5 1093,-1422.41"/>
<polygon fill="#b20000" stroke="#b20000" stroke-width="5" points="1097.38,-1422.3 1093,-1412.3 1088.63,-1422.3 1097.38,-1422.3"/>
</a>
</g>
<g id="a_edge12&#45;label"><a xlink:title="net/http.(*conn).serve &#45;&gt; net/http.serverHandler.ServeHTTP (37664629)">
<text text-anchor="middle" x="1131.5" y="-1433.8" font-family="Times,serif" font-size="14.00"> 37664629</text>
</a>
</g>
</g>
<!-- N2 -->
<g id="node2" class="node">
<title>N2</title>
<g id="a_node2"><a xlink:title="fmt.(*pp).printValue (28039852)">
<polygon fill="#edd7d5" stroke="#b20f00" points="1389.5,-525 1274.5,-525 1274.5,-481 1389.5,-481 1389.5,-525"/>
<text text-anchor="middle" x="1332" y="-514.6" font-family="Times,serif" font-size="8.00">fmt</text>
<text text-anchor="middle" x="1332" y="-505.6" font-family="Times,serif" font-size="8.00">(*pp)</text>
<text text-anchor="middle" x="1332" y="-496.6" font-family="Times,serif" font-size="8.00">printValue</text>
<text text-anchor="middle" x="1332" y="-487.6" font-family="Times,serif" font-size="8.00">0 of 28039852 (74.10%)</text>
</a>
</g>
</g>
<!-- N9 -->
<g id="node9" class="node">
<title>N9</title>
<g id="a_node9"><a xlink:title="fmt.(*pp).handleMethods (3334353)">
<polygon fill="#ede8e2" stroke="#b28c63" points="1098,-415 994,-415 994,-371 1098,-371 1098,-415"/>
<text text-anchor="middle" x="1046" y="-404.6" font-family="Times,serif" font-size="8.00">fmt</text>
<text text-anchor="middle" x="1046" y="-395.6" font-family="Times,serif" font-size="8.00">(*pp)</text>
<text text-anchor="middle" x="1046" y="-386.6" font-family="Times,serif" font-size="8.00">handleMethods</text>
<text text-anchor="middle" x="1046" y="-377.6" font-family="Times,serif" font-size="8.00">0 of 3334353 (8.81%)</text>
</a>
</g>
</g>
<!-- N2&#45;&gt;N9 -->
<g id="edge24" class="edge">
<title>N2&#45;&gt;N9</title>
<g id="a_edge24"><a xlink:title="fmt.(*pp).printValue &#45;&gt; fmt.(*pp).handleMethods (3334353)">
<path fill="none" stroke="#b28c63" d="M1274.23,-494.31C1239.13,-488.4 1193.93,-478.55 1156,-463 1129.79,-452.25 1102.8,-435.42 1082.11,-421.08"/>
<polygon fill="#b28c63" stroke="#b28c63" points="1084.13,-418.22 1073.94,-415.31 1080.1,-423.94 1084.13,-418.22"/>
</a>
</g>
<g id="a_edge24&#45;label"><a xlink:title="fmt.(*pp).printValue &#45;&gt; fmt.(*pp).handleMethods (3334353)">
<text text-anchor="middle" x="1190" y="-444.3" font-family="Times,serif" font-size="14.00"> 3334353</text>
</a>
</g>
</g>
<!-- N14 -->
<g id="node14" class="node">
<title>N14</title>
<g id="a_node14"><a xlink:title="reflect.(*rtype).Field (8061051)">
<polygon fill="#edded5" stroke="#b24200" points="1244,-415 1134,-415 1134,-371 1244,-371 1244,-415"/>
<text text-anchor="middle" x="1189" y="-404.6" font-family="Times,serif" font-size="8.00">reflect</text>
<text text-anchor="middle" x="1189" y="-395.6" font-family="Times,serif" font-size="8.00">(*rtype)</text>
<text text-anchor="middle" x="1189" y="-386.6" font-family="Times,serif" font-size="8.00">Field</text>
<text text-anchor="middle" x="1189" y="-377.6" font-family="Times,serif" font-size="8.00">0 of 8061051 (21.30%)</text>
</a>
</g>
</g>
<!-- N2&#45;&gt;N14 -->
<g id="edge22" class="edge">
<title>N2&#45;&gt;N14</title>
<g id="a_edge22"><a xlink:title="fmt.(*pp).printValue &#45;&gt; reflect.(*rtype).Field (8061051)">
<path fill="none" stroke="#b24200" stroke-width="2" d="M1288.56,-480.97C1278.85,-475.59 1268.82,-469.48 1260,-463 1243.91,-451.17 1227.8,-435.87 1215,-422.68"/>
<polygon fill="#b24200" stroke="#b24200" stroke-width="2" points="1217.3,-420.02 1207.87,-415.2 1212.24,-424.85 1217.3,-420.02"/>
</a>
</g>
<g id="a_edge22&#45;label"><a xlink:title="fmt.(*pp).printValue &#45;&gt; reflect.(*rtype).Field (8061051)">
<text text-anchor="middle" x="1294" y="-444.3" font-family="Times,serif" font-size="14.00"> 8061051</text>
</a>
</g>
</g>
<!-- N15 -->
<g id="node15" class="node">
<title>N15</title>
<g id="a_node15"><a xlink:title="reflect.Value.Interface (16513372)">
<polygon fill="#eddad5" stroke="#b22700" points="1389.5,-415 1274.5,-415 1274.5,-371 1389.5,-371 1389.5,-415"/>
<text text-anchor="middle" x="1332" y="-404.6" font-family="Times,serif" font-size="8.00">reflect</text>
<text text-anchor="middle" x="1332" y="-395.6" font-family="Times,serif" font-size="8.00">Value</text>
<text text-anchor="middle" x="1332" y="-386.6" font-family="Times,serif" font-size="8.00">Interface</text>
<text text-anchor="middle" x="1332" y="-377.6" font-family="Times,serif" font-size="8.00">0 of 16513372 (43.64%)</text>
</a>
</g>
</g>
<!-- N2&#45;&gt;N15 -->
<g id="edge19" class="edge">
<title>N2&#45;&gt;N15</title>
<g id="a_edge19"><a xlink:title="fmt.(*pp).printValue &#45;&gt; reflect.Value.Interface (16513372)">
<path fill="none" stroke="#b22700" stroke-width="3" d="M1332,-480.92C1332,-465.09 1332,-443.15 1332,-425.27"/>
<polygon fill="#b22700" stroke="#b22700" stroke-width="3" points="1335.5,-425.03 1332,-415.03 1328.5,-425.03 1335.5,-425.03"/>
</a>
</g>
<g id="a_edge19&#45;label"><a xlink:title="fmt.(*pp).printValue &#45;&gt; reflect.Value.Interface (16513372)">
<text text-anchor="middle" x="1370.5" y="-451.8" font-family="Times,serif" font-size="14.00"> 16513372</text>
<text text-anchor="middle" x="1370.5" y="-436.8" font-family="Times,serif" font-size="14.00"> (inline)</text>
</a>
</g>
</g>
<!-- N3 -->
<g id="node3" class="node">
<title>N3</title>
<g id="a_node3"><a xlink:title="reflect.packEface (16513372)">
<polygon fill="#eddad5" stroke="#b22700" points="1458,-173 1206,-173 1206,-87 1458,-87 1458,-173"/>
<text text-anchor="middle" x="1332" y="-149.8" font-family="Times,serif" font-size="24.00">reflect</text>
<text text-anchor="middle" x="1332" y="-123.8" font-family="Times,serif" font-size="24.00">packEface</text>
<text text-anchor="middle" x="1332" y="-97.8" font-family="Times,serif" font-size="24.00">16513372 (43.64%)</text>
</a>
</g>
</g>
<!-- NN3_0 -->
<g id="NN3_0" class="node">
<title>NN3_0</title>
<g id="a_NN3_0"><a xlink:title="9601170">
<polygon fill="#f8f8f8" stroke="black" points="1268,-36 1218,-36 1214,-32 1214,0 1264,0 1268,-4 1268,-36"/>
<polyline fill="none" stroke="black" points="1264,-32 1214,-32 "/>
<polyline fill="none" stroke="black" points="1264,-32 1264,0 "/>
<polyline fill="none" stroke="black" points="1264,-32 1268,-36 "/>
<text text-anchor="middle" x="1241" y="-16.1" font-family="Times,serif" font-size="8.00">16B</text>
</a>
</g>
</g>
<!-- N3&#45;&gt;NN3_0 -->
<g id="edge1" class="edge">
<title>N3&#45;&gt;NN3_0</title>
<g id="a_edge1"><a xlink:title="9601170">
<path fill="none" stroke="black" d="M1275.27,-86.77C1269.68,-81.19 1264.44,-75.23 1260,-69 1255.07,-62.09 1251.24,-53.74 1248.35,-45.86"/>
<polygon fill="black" stroke="black" points="1251.64,-44.67 1245.18,-36.27 1245,-46.86 1251.64,-44.67"/>
</a>
</g>
<g id="a_edge1&#45;label"><a xlink:title="9601170">
<text text-anchor="middle" x="1294" y="-57.8" font-family="Times,serif" font-size="14.00"> 9601170</text>
</a>
</g>
</g>
<!-- NN3_1 -->
<g id="NN3_1" class="node">
<title>NN3_1</title>
<g id="a_NN3_1"><a xlink:title="3517179">
<polygon fill="#f8f8f8" stroke="black" points="1359,-36 1309,-36 1305,-32 1305,0 1355,0 1359,-4 1359,-36"/>
<polyline fill="none" stroke="black" points="1355,-32 1305,-32 "/>
<polyline fill="none" stroke="black" points="1355,-32 1355,0 "/>
<polyline fill="none" stroke="black" points="1355,-32 1359,-36 "/>
<text text-anchor="middle" x="1332" y="-16.1" font-family="Times,serif" font-size="8.00">24B</text>
</a>
</g>
</g>
<!-- N3&#45;&gt;NN3_1 -->
<g id="edge2" class="edge">
<title>N3&#45;&gt;NN3_1</title>
<g id="a_edge2"><a xlink:title="3517179">
<path fill="none" stroke="black" d="M1332,-86.79C1332,-73.2 1332,-58.5 1332,-46.28"/>
<polygon fill="black" stroke="black" points="1335.5,-46.27 1332,-36.27 1328.5,-46.27 1335.5,-46.27"/>
</a>
</g>
<g id="a_edge2&#45;label"><a xlink:title="3517179">
<text text-anchor="middle" x="1366" y="-57.8" font-family="Times,serif" font-size="14.00"> 3517179</text>
</a>
</g>
</g>
<!-- NN3_2 -->
<g id="NN3_2" class="node">
<title>NN3_2</title>
<g id="a_NN3_2"><a xlink:title="3395023">
<polygon fill="#f8f8f8" stroke="black" points="1450,-36 1400,-36 1396,-32 1396,0 1446,0 1450,-4 1450,-36"/>
<polyline fill="none" stroke="black" points="1446,-32 1396,-32 "/>
<polyline fill="none" stroke="black" points="1446,-32 1446,0 "/>
<polyline fill="none" stroke="black" points="1446,-32 1450,-36 "/>
<text text-anchor="middle" x="1423" y="-16.1" font-family="Times,serif" font-size="8.00">80B</text>
</a>
</g>
</g>
<!-- N3&#45;&gt;NN3_2 -->
<g id="edge3" class="edge">
<title>N3&#45;&gt;NN3_2</title>
<g id="a_edge3"><a xlink:title="3395023">
<path fill="none" stroke="black" d="M1385.68,-86.69C1391.23,-81.08 1396.48,-75.14 1401,-69 1406.2,-61.94 1410.51,-53.46 1413.9,-45.51"/>
<polygon fill="black" stroke="black" points="1417.16,-46.79 1417.57,-36.2 1410.65,-44.22 1417.16,-46.79"/>
</a>
</g>
<g id="a_edge3&#45;label"><a xlink:title="3395023">
<text text-anchor="middle" x="1444" y="-57.8" font-family="Times,serif" font-size="14.00"> 3395023</text>
</a>
</g>
</g>
<!-- N4 -->
<g id="node4" class="node">
<title>N4</title>
<g id="a_node4"><a xlink:title="main.handle (37656162)">
<polygon fill="#edd5d5" stroke="#b20000" points="1202,-1127 984,-1127 984,-1039 1202,-1039 1202,-1127"/>
<text text-anchor="middle" x="1093" y="-1108.6" font-family="Times,serif" font-size="18.00">main</text>
<text text-anchor="middle" x="1093" y="-1088.6" font-family="Times,serif" font-size="18.00">handle</text>
<text text-anchor="middle" x="1093" y="-1068.6" font-family="Times,serif" font-size="18.00">6261546 (16.55%)</text>
<text text-anchor="middle" x="1093" y="-1048.6" font-family="Times,serif" font-size="18.00">of 37656162 (99.51%)</text>
</a>
</g>
</g>
<!-- NN4_0 -->
<g id="NN4_0" class="node">
<title>NN4_0</title>
<g id="a_NN4_0"><a xlink:title="3073872">
<polygon fill="#f8f8f8" stroke="black" points="948.5,-988 893.5,-988 889.5,-984 889.5,-952 944.5,-952 948.5,-956 948.5,-988"/>
<polyline fill="none" stroke="black" points="944.5,-984 889.5,-984 "/>
<polyline fill="none" stroke="black" points="944.5,-984 944.5,-952 "/>
<polyline fill="none" stroke="black" points="944.5,-984 948.5,-988 "/>
<text text-anchor="middle" x="919" y="-968.1" font-family="Times,serif" font-size="8.00">16B..128B</text>
</a>
</g>
</g>
<!-- N4&#45;&gt;NN4_0 -->
<g id="edge4" class="edge">
<title>N4&#45;&gt;NN4_0</title>
<g id="a_edge4"><a xlink:title="3073872">
<path fill="none" stroke="black" d="M983.76,-1043.95C971.7,-1037.32 960.14,-1029.7 950,-1021 942.37,-1014.45 936.03,-1005.55 931.11,-997.07"/>
<polygon fill="black" stroke="black" points="934.15,-995.33 926.34,-988.17 927.98,-998.64 934.15,-995.33"/>
</a>
</g>
<g id="a_edge4&#45;label"><a xlink:title="3073872">
<text text-anchor="middle" x="984" y="-1009.8" font-family="Times,serif" font-size="14.00"> 3073872</text>
</a>
</g>
</g>
<!-- NN4_1 -->
<g id="NN4_1" class="node">
<title>NN4_1</title>
<g id="a_NN4_1"><a xlink:title="897670">
<polygon fill="#f8f8f8" stroke="black" points="1043,-988 979,-988 975,-984 975,-952 1039,-952 1043,-956 1043,-988"/>
<polyline fill="none" stroke="black" points="1039,-984 975,-984 "/>
<polyline fill="none" stroke="black" points="1039,-984 1039,-952 "/>
<polyline fill="none" stroke="black" points="1039,-984 1043,-988 "/>
<text text-anchor="middle" x="1009" y="-968.1" font-family="Times,serif" font-size="8.00">88kB..112kB</text>
</a>
</g>
</g>
<!-- N4&#45;&gt;NN4_1 -->
<g id="edge5" class="edge">
<title>N4&#45;&gt;NN4_1</title>
<g id="a_edge5"><a xlink:title="897670">
<path fill="none" stroke="black" d="M1044.3,-1038.93C1039.12,-1033.19 1034.21,-1027.16 1030,-1021 1025.14,-1013.9 1021.08,-1005.49 1017.86,-997.62"/>
<polygon fill="black" stroke="black" points="1021.05,-996.18 1014.23,-988.07 1014.51,-998.66 1021.05,-996.18"/>
</a>
</g>
<g id="a_edge5&#45;label"><a xlink:title="897670">
<text text-anchor="middle" x="1059.5" y="-1009.8" font-family="Times,serif" font-size="14.00"> 897670</text>
</a>
</g>
</g>
<!-- NN4_2 -->
<g id="NN4_2" class="node">
<title>NN4_2</title>
<g id="a_NN4_2"><a xlink:title="679594">
<polygon fill="#f8f8f8" stroke="black" points="1124.5,-988 1065.5,-988 1061.5,-984 1061.5,-952 1120.5,-952 1124.5,-956 1124.5,-988"/>
<polyline fill="none" stroke="black" points="1120.5,-984 1061.5,-984 "/>
<polyline fill="none" stroke="black" points="1120.5,-984 1120.5,-952 "/>
<polyline fill="none" stroke="black" points="1120.5,-984 1124.5,-988 "/>
<text text-anchor="middle" x="1093" y="-968.1" font-family="Times,serif" font-size="8.00">40kB..56kB</text>
</a>
</g>
</g>
<!-- N4&#45;&gt;NN4_2 -->
<g id="edge6" class="edge">
<title>N4&#45;&gt;NN4_2</title>
<g id="a_edge6"><a xlink:title="679594">
<path fill="none" stroke="black" d="M1093,-1038.77C1093,-1025.25 1093,-1010.71 1093,-998.58"/>
<polygon fill="black" stroke="black" points="1096.5,-998.22 1093,-988.22 1089.5,-998.22 1096.5,-998.22"/>
</a>
</g>
<g id="a_edge6&#45;label"><a xlink:title="679594">
<text text-anchor="middle" x="1122.5" y="-1009.8" font-family="Times,serif" font-size="14.00"> 679594</text>
</a>
</g>
</g>
<!-- NN4_3 -->
<g id="NN4_3" class="node">
<title>NN4_3</title>
<g id="a_NN4_3"><a xlink:title="676444">
<polygon fill="#f8f8f8" stroke="black" points="1206.5,-988 1147.5,-988 1143.5,-984 1143.5,-952 1202.5,-952 1206.5,-956 1206.5,-988"/>
<polyline fill="none" stroke="black" points="1202.5,-984 1143.5,-984 "/>
<polyline fill="none" stroke="black" points="1202.5,-984 1202.5,-952 "/>
<polyline fill="none" stroke="black" points="1202.5,-984 1206.5,-988 "/>
<text text-anchor="middle" x="1175" y="-968.1" font-family="Times,serif" font-size="8.00">64kB..80kB</text>
</a>
</g>
</g>
<!-- N4&#45;&gt;NN4_3 -->
<g id="edge7" class="edge">
<title>N4&#45;&gt;NN4_3</title>
<g id="a_edge7"><a xlink:title="676444">
<path fill="none" stroke="black" d="M1139.23,-1038.67C1144.2,-1032.98 1148.92,-1027.02 1153,-1021 1157.79,-1013.94 1161.93,-1005.66 1165.29,-997.89"/>
<polygon fill="black" stroke="black" points="1168.6,-999.05 1169.11,-988.46 1162.11,-996.42 1168.6,-999.05"/>
</a>
</g>
<g id="a_edge7&#45;label"><a xlink:title="676444">
<text text-anchor="middle" x="1191.5" y="-1009.8" font-family="Times,serif" font-size="14.00"> 676444</text>
</a>
</g>
</g>
<!-- N5 -->
<g id="node5" class="node">
<title>N5</title>
<g id="a_node5"><a xlink:title="fmt.Sprintf (31392567)">
<polygon fill="#edd6d5" stroke="#b20900" points="1343,-915 1155,-915 1155,-839 1343,-839 1343,-915"/>
<text text-anchor="middle" x="1249" y="-899" font-family="Times,serif" font-size="15.00">fmt</text>
<text text-anchor="middle" x="1249" y="-882" font-family="Times,serif" font-size="15.00">Sprintf</text>
<text text-anchor="middle" x="1249" y="-865" font-family="Times,serif" font-size="15.00">3158401 (8.35%)</text>
<text text-anchor="middle" x="1249" y="-848" font-family="Times,serif" font-size="15.00">of 31392567 (82.96%)</text>
</a>
</g>
</g>
<!-- N4&#45;&gt;N5 -->
<g id="edge15" class="edge">
<title>N4&#45;&gt;N5</title>
<g id="a_edge15"><a xlink:title="main.handle &#45;&gt; fmt.Sprintf (31392567)">
<path fill="none" stroke="#b20900" stroke-width="5" d="M1202.02,-1043.05C1210.69,-1036.73 1218.57,-1029.43 1225,-1021 1245.63,-993.97 1251.18,-955.66 1251.81,-925.49"/>
<polygon fill="#b20900" stroke="#b20900" stroke-width="5" points="1256.18,-925.2 1251.84,-915.19 1247.43,-925.17 1256.18,-925.2"/>
</a>
</g>
<g id="a_edge15&#45;label"><a xlink:title="main.handle &#45;&gt; fmt.Sprintf (31392567)">
<text text-anchor="middle" x="1288.5" y="-966.3" font-family="Times,serif" font-size="14.00"> 31392567</text>
</a>
</g>
</g>
<!-- NN5_0 -->
<g id="NN5_0" class="node">
<title>NN5_0</title>
<g id="a_NN5_0"><a xlink:title="3158401">
<polygon fill="#f8f8f8" stroke="black" points="1276,-788 1226,-788 1222,-784 1222,-752 1272,-752 1276,-756 1276,-788"/>
<polyline fill="none" stroke="black" points="1272,-784 1222,-784 "/>
<polyline fill="none" stroke="black" points="1272,-784 1272,-752 "/>
<polyline fill="none" stroke="black" points="1272,-784 1276,-788 "/>
<text text-anchor="middle" x="1249" y="-768.1" font-family="Times,serif" font-size="8.00">128B</text>
</a>
</g>
</g>
<!-- N5&#45;&gt;NN5_0 -->
<g id="edge8" class="edge">
<title>N5&#45;&gt;NN5_0</title>
<g id="a_edge8"><a xlink:title="3158401">
<path fill="none" stroke="black" d="M1249,-838.98C1249,-825.56 1249,-810.65 1249,-798.22"/>
<polygon fill="black" stroke="black" points="1252.5,-798.04 1249,-788.04 1245.5,-798.04 1252.5,-798.04"/>
</a>
</g>
<g id="a_edge8&#45;label"><a xlink:title="3158401">
<text text-anchor="middle" x="1283" y="-809.8" font-family="Times,serif" font-size="14.00"> 3158401</text>
</a>
</g>
</g>
<!-- N8 -->
<g id="node8" class="node">
<title>N8</title>
<g id="a_node8"><a xlink:title="fmt.(*pp).doPrintf (28039852)">
<polygon fill="#edd7d5" stroke="#b20f00" points="1389.5,-715 1274.5,-715 1274.5,-671 1389.5,-671 1389.5,-715"/>
<text text-anchor="middle" x="1332" y="-704.6" font-family="Times,serif" font-size="8.00">fmt</text>
<text text-anchor="middle" x="1332" y="-695.6" font-family="Times,serif" font-size="8.00">(*pp)</text>
<text text-anchor="middle" x="1332" y="-686.6" font-family="Times,serif" font-size="8.00">doPrintf</text>
<text text-anchor="middle" x="1332" y="-677.6" font-family="Times,serif" font-size="8.00">0 of 28039852 (74.10%)</text>
</a>
</g>
</g>
<!-- N5&#45;&gt;N8 -->
<g id="edge18" class="edge">
<title>N5&#45;&gt;N8</title>
<g id="a_edge18"><a xlink:title="fmt.Sprintf &#45;&gt; fmt.(*pp).doPrintf (28039852)">
<path fill="none" stroke="#b20f00" stroke-width="4" d="M1304.6,-838.83C1309.81,-833.4 1314.45,-827.44 1318,-821 1334.26,-791.5 1336.16,-752.32 1335.01,-725.31"/>
<polygon fill="#b20f00" stroke="#b20f00" stroke-width="4" points="1338.5,-725.03 1334.42,-715.26 1331.51,-725.44 1338.5,-725.03"/>
</a>
</g>
<g id="a_edge18&#45;label"><a xlink:title="fmt.Sprintf &#45;&gt; fmt.(*pp).doPrintf (28039852)">
<text text-anchor="middle" x="1373.5" y="-766.3" font-family="Times,serif" font-size="14.00"> 28039852</text>
</a>
</g>
</g>
<!-- N6 -->
<g id="node6" class="node">
<title>N6</title>
<g id="a_node6"><a xlink:title="reflect.(*structType).Field (8061051)">
<polygon fill="#edded5" stroke="#b24200" points="1256.5,-320 1053.5,-320 1053.5,-224 1256.5,-224 1256.5,-320"/>
<text text-anchor="middle" x="1155" y="-300" font-family="Times,serif" font-size="20.00">reflect</text>
<text text-anchor="middle" x="1155" y="-278" font-family="Times,serif" font-size="20.00">(*structType)</text>
<text text-anchor="middle" x="1155" y="-256" font-family="Times,serif" font-size="20.00">Field</text>
<text text-anchor="middle" x="1155" y="-234" font-family="Times,serif" font-size="20.00">8061051 (21.30%)</text>
</a>
</g>
</g>
<!-- NN6_0 -->
<g id="NN6_0" class="node">
<title>NN6_0</title>
<g id="a_NN6_0"><a xlink:title="8061051">
<polygon fill="#f8f8f8" stroke="black" points="1182,-148 1132,-148 1128,-144 1128,-112 1178,-112 1182,-116 1182,-148"/>
<polyline fill="none" stroke="black" points="1178,-144 1128,-144 "/>
<polyline fill="none" stroke="black" points="1178,-144 1178,-112 "/>
<polyline fill="none" stroke="black" points="1178,-144 1182,-148 "/>
<text text-anchor="middle" x="1155" y="-128.1" font-family="Times,serif" font-size="8.00">16B</text>
</a>
</g>
</g>
<!-- N6&#45;&gt;NN6_0 -->
<g id="edge9" class="edge">
<title>N6&#45;&gt;NN6_0</title>
<g id="a_edge9"><a xlink:title="8061051">
<path fill="none" stroke="black" d="M1155,-223.99C1155,-202.21 1155,-177.09 1155,-158.45"/>
<polygon fill="black" stroke="black" points="1158.5,-158.3 1155,-148.3 1151.5,-158.3 1158.5,-158.3"/>
</a>
</g>
<g id="a_edge9&#45;label"><a xlink:title="8061051">
<text text-anchor="middle" x="1189" y="-194.8" font-family="Times,serif" font-size="14.00"> 8061051</text>
</a>
</g>
</g>
<!-- N7 -->
<g id="node7" class="node">
<title>N7</title>
<g id="a_node7"><a xlink:title="time.Time.GoString (3244230)">
<polygon fill="#ede8e2" stroke="#b28d65" points="1035.5,-312 876.5,-312 876.5,-232 1035.5,-232 1035.5,-312"/>
<text text-anchor="middle" x="956" y="-295.2" font-family="Times,serif" font-size="16.00">time</text>
<text text-anchor="middle" x="956" y="-277.2" font-family="Times,serif" font-size="16.00">Time</text>
<text text-anchor="middle" x="956" y="-259.2" font-family="Times,serif" font-size="16.00">GoString</text>
<text text-anchor="middle" x="956" y="-241.2" font-family="Times,serif" font-size="16.00">3244230 (8.57%)</text>
</a>
</g>
</g>
<!-- NN7_0 -->
<g id="NN7_0" class="node">
<title>NN7_0</title>
<g id="a_NN7_0"><a xlink:title="3244230">
<polygon fill="#f8f8f8" stroke="black" points="983,-148 933,-148 929,-144 929,-112 979,-112 983,-116 983,-148"/>
<polyline fill="none" stroke="black" points="979,-144 929,-144 "/>
<polyline fill="none" stroke="black" points="979,-144 979,-112 "/>
<polyline fill="none" stroke="black" points="979,-144 983,-148 "/>
<text text-anchor="middle" x="956" y="-128.1" font-family="Times,serif" font-size="8.00">64B</text>
</a>
</g>
</g>
<!-- N7&#45;&gt;NN7_0 -->
<g id="edge10" class="edge">
<title>N7&#45;&gt;NN7_0</title>
<g id="a_edge10"><a xlink:title="3244230">
<path fill="none" stroke="black" d="M956,-231.63C956,-208.21 956,-179.1 956,-158.22"/>
<polygon fill="black" stroke="black" points="959.5,-158.13 956,-148.13 952.5,-158.13 959.5,-158.13"/>
</a>
</g>
<g id="a_edge10&#45;label"><a xlink:title="3244230">
<text text-anchor="middle" x="990" y="-194.8" font-family="Times,serif" font-size="14.00"> 3244230</text>
</a>
</g>
</g>
<!-- N10 -->
<g id="node10" class="node">
<title>N10</title>
<g id="a_node10"><a xlink:title="fmt.(*pp).printArg (28039852)">
<polygon fill="#edd7d5" stroke="#b20f00" points="1389.5,-620 1274.5,-620 1274.5,-576 1389.5,-576 1389.5,-620"/>
<text text-anchor="middle" x="1332" y="-609.6" font-family="Times,serif" font-size="8.00">fmt</text>
<text text-anchor="middle" x="1332" y="-600.6" font-family="Times,serif" font-size="8.00">(*pp)</text>
<text text-anchor="middle" x="1332" y="-591.6" font-family="Times,serif" font-size="8.00">printArg</text>
<text text-anchor="middle" x="1332" y="-582.6" font-family="Times,serif" font-size="8.00">0 of 28039852 (74.10%)</text>
</a>
</g>
</g>
<!-- N8&#45;&gt;N10 -->
<g id="edge16" class="edge">
<title>N8&#45;&gt;N10</title>
<g id="a_edge16"><a xlink:title="fmt.(*pp).doPrintf &#45;&gt; fmt.(*pp).printArg (28039852)">
<path fill="none" stroke="#b20f00" stroke-width="4" d="M1332,-670.9C1332,-658.89 1332,-643.62 1332,-630.24"/>
<polygon fill="#b20f00" stroke="#b20f00" stroke-width="4" points="1335.5,-630.02 1332,-620.02 1328.5,-630.02 1335.5,-630.02"/>
</a>
</g>
<g id="a_edge16&#45;label"><a xlink:title="fmt.(*pp).doPrintf &#45;&gt; fmt.(*pp).printArg (28039852)">
<text text-anchor="middle" x="1370.5" y="-641.8" font-family="Times,serif" font-size="14.00"> 28039852</text>
</a>
</g>
</g>
<!-- N9&#45;&gt;N7 -->
<g id="edge25" class="edge">
<title>N9&#45;&gt;N7</title>
<g id="a_edge25"><a xlink:title="fmt.(*pp).handleMethods &#45;&gt; time.Time.GoString (3244230)">
<path fill="none" stroke="#b28d65" d="M1030.12,-371C1019.44,-356.88 1004.93,-337.69 991.58,-320.04"/>
<polygon fill="#b28d65" stroke="#b28d65" points="994.37,-317.92 985.54,-312.06 988.78,-322.15 994.37,-317.92"/>
</a>
</g>
<g id="a_edge25&#45;label"><a xlink:title="fmt.(*pp).handleMethods &#45;&gt; time.Time.GoString (3244230)">
<text text-anchor="middle" x="1049" y="-341.8" font-family="Times,serif" font-size="14.00"> 3244230</text>
</a>
</g>
</g>
<!-- N10&#45;&gt;N2 -->
<g id="edge17" class="edge">
<title>N10&#45;&gt;N2</title>
<g id="a_edge17"><a xlink:title="fmt.(*pp).printArg &#45;&gt; fmt.(*pp).printValue (28039852)">
<path fill="none" stroke="#b20f00" stroke-width="4" d="M1332,-575.9C1332,-563.89 1332,-548.62 1332,-535.24"/>
<polygon fill="#b20f00" stroke="#b20f00" stroke-width="4" points="1335.5,-535.02 1332,-525.02 1328.5,-535.02 1335.5,-535.02"/>
</a>
</g>
<g id="a_edge17&#45;label"><a xlink:title="fmt.(*pp).printArg &#45;&gt; fmt.(*pp).printValue (28039852)">
<text text-anchor="middle" x="1370.5" y="-546.8" font-family="Times,serif" font-size="14.00"> 28039852</text>
</a>
</g>
</g>
<!-- N11 -->
<g id="node11" class="node">
<title>N11</title>
<g id="a_node11"><a xlink:title="net/http.(*ServeMux).ServeHTTP (37664629)">
<polygon fill="#edd5d5" stroke="#b20000" points="1150.5,-1317 1035.5,-1317 1035.5,-1273 1150.5,-1273 1150.5,-1317"/>
<text text-anchor="middle" x="1093" y="-1306.6" font-family="Times,serif" font-size="8.00">http</text>
<text text-anchor="middle" x="1093" y="-1297.6" font-family="Times,serif" font-size="8.00">(*ServeMux)</text>
<text text-anchor="middle" x="1093" y="-1288.6" font-family="Times,serif" font-size="8.00">ServeHTTP</text>
<text text-anchor="middle" x="1093" y="-1279.6" font-family="Times,serif" font-size="8.00">0 of 37664629 (99.53%)</text>
</a>
</g>
</g>
<!-- N12 -->
<g id="node12" class="node">
<title>N12</title>
<g id="a_node12"><a xlink:title="net/http.HandlerFunc.ServeHTTP (37664629)">
<polygon fill="#edd5d5" stroke="#b20000" points="1150.5,-1222 1035.5,-1222 1035.5,-1178 1150.5,-1178 1150.5,-1222"/>
<text text-anchor="middle" x="1093" y="-1211.6" font-family="Times,serif" font-size="8.00">http</text>
<text text-anchor="middle" x="1093" y="-1202.6" font-family="Times,serif" font-size="8.00">HandlerFunc</text>
<text text-anchor="middle" x="1093" y="-1193.6" font-family="Times,serif" font-size="8.00">ServeHTTP</text>
<text text-anchor="middle" x="1093" y="-1184.6" font-family="Times,serif" font-size="8.00">0 of 37664629 (99.53%)</text>
</a>
</g>
</g>
<!-- N11&#45;&gt;N12 -->
<g id="edge11" class="edge">
<title>N11&#45;&gt;N12</title>
<g id="a_edge11"><a xlink:title="net/http.(*ServeMux).ServeHTTP &#45;&gt; net/http.HandlerFunc.ServeHTTP (37664629)">
<path fill="none" stroke="#b20000" stroke-width="5" d="M1093,-1272.9C1093,-1260.89 1093,-1245.62 1093,-1232.24"/>
<polygon fill="#b20000" stroke="#b20000" stroke-width="5" points="1097.38,-1232.02 1093,-1222.02 1088.63,-1232.02 1097.38,-1232.02"/>
</a>
</g>
<g id="a_edge11&#45;label"><a xlink:title="net/http.(*ServeMux).ServeHTTP &#45;&gt; net/http.HandlerFunc.ServeHTTP (37664629)">
<text text-anchor="middle" x="1131.5" y="-1243.8" font-family="Times,serif" font-size="14.00"> 37664629</text>
</a>
</g>
</g>
<!-- N12&#45;&gt;N4 -->
<g id="edge14" class="edge">
<title>N12&#45;&gt;N4</title>
<g id="a_edge14"><a xlink:title="net/http.HandlerFunc.ServeHTTP &#45;&gt; main.handle (37656162)">
<path fill="none" stroke="#b20000" stroke-width="5" d="M1093,-1177.91C1093,-1166.53 1093,-1151.93 1093,-1137.64"/>
<polygon fill="#b20000" stroke="#b20000" stroke-width="5" points="1097.38,-1137.35 1093,-1127.35 1088.63,-1137.35 1097.38,-1137.35"/>
</a>
</g>
<g id="a_edge14&#45;label"><a xlink:title="net/http.HandlerFunc.ServeHTTP &#45;&gt; main.handle (37656162)">
<text text-anchor="middle" x="1131.5" y="-1148.8" font-family="Times,serif" font-size="14.00"> 37656162</text>
</a>
</g>
</g>
<!-- N13&#45;&gt;N11 -->
<g id="edge13" class="edge">
<title>N13&#45;&gt;N11</title>
<g id="a_edge13"><a xlink:title="net/http.serverHandler.ServeHTTP &#45;&gt; net/http.(*ServeMux).ServeHTTP (37664629)">
<path fill="none" stroke="#b20000" stroke-width="5" d="M1093,-1367.9C1093,-1355.89 1093,-1340.62 1093,-1327.24"/>
<polygon fill="#b20000" stroke="#b20000" stroke-width="5" points="1097.38,-1327.02 1093,-1317.02 1088.63,-1327.02 1097.38,-1327.02"/>
</a>
</g>
<g id="a_edge13&#45;label"><a xlink:title="net/http.serverHandler.ServeHTTP &#45;&gt; net/http.(*ServeMux).ServeHTTP (37664629)">
<text text-anchor="middle" x="1131.5" y="-1338.8" font-family="Times,serif" font-size="14.00"> 37664629</text>
</a>
</g>
</g>
<!-- N14&#45;&gt;N6 -->
<g id="edge23" class="edge">
<title>N14&#45;&gt;N6</title>
<g id="a_edge23"><a xlink:title="reflect.(*rtype).Field &#45;&gt; reflect.(*structType).Field (8061051)">
<path fill="none" stroke="#b24200" stroke-width="2" d="M1183,-371C1179.73,-359.56 1175.51,-344.79 1171.35,-330.21"/>
<polygon fill="#b24200" stroke="#b24200" stroke-width="2" points="1174.6,-328.84 1168.48,-320.19 1167.86,-330.77 1174.6,-328.84"/>
</a>
</g>
<g id="a_edge23&#45;label"><a xlink:title="reflect.(*rtype).Field &#45;&gt; reflect.(*structType).Field (8061051)">
<text text-anchor="middle" x="1212" y="-341.8" font-family="Times,serif" font-size="14.00"> 8061051</text>
</a>
</g>
</g>
<!-- N16 -->
<g id="node16" class="node">
<title>N16</title>
<g id="a_node16"><a xlink:title="reflect.valueInterface (16513372)">
<polygon fill="#eddad5" stroke="#b22700" points="1389.5,-290 1274.5,-290 1274.5,-254 1389.5,-254 1389.5,-290"/>
<text text-anchor="middle" x="1332" y="-279.1" font-family="Times,serif" font-size="8.00">reflect</text>
<text text-anchor="middle" x="1332" y="-270.1" font-family="Times,serif" font-size="8.00">valueInterface</text>
<text text-anchor="middle" x="1332" y="-261.1" font-family="Times,serif" font-size="8.00">0 of 16513372 (43.64%)</text>
</a>
</g>
</g>
<!-- N15&#45;&gt;N16 -->
<g id="edge20" class="edge">
<title>N15&#45;&gt;N16</title>
<g id="a_edge20"><a xlink:title="reflect.Value.Interface &#45;&gt; reflect.valueInterface (16513372)">
<path fill="none" stroke="#b22700" stroke-width="3" d="M1332,-371C1332,-351.36 1332,-321.92 1332,-300.44"/>
<polygon fill="#b22700" stroke="#b22700" stroke-width="3" points="1335.5,-300.32 1332,-290.32 1328.5,-300.32 1335.5,-300.32"/>
</a>
</g>
<g id="a_edge20&#45;label"><a xlink:title="reflect.Value.Interface &#45;&gt; reflect.valueInterface (16513372)">
<text text-anchor="middle" x="1370.5" y="-341.8" font-family="Times,serif" font-size="14.00"> 16513372</text>
</a>
</g>
</g>
<!-- N16&#45;&gt;N3 -->
<g id="edge21" class="edge">
<title>N16&#45;&gt;N3</title>
<g id="a_edge21"><a xlink:title="reflect.valueInterface &#45;&gt; reflect.packEface (16513372)">
<path fill="none" stroke="#b22700" stroke-width="3" d="M1332,-253.83C1332,-236.31 1332,-208.24 1332,-183.35"/>
<polygon fill="#b22700" stroke="#b22700" stroke-width="3" points="1335.5,-183.28 1332,-173.28 1328.5,-183.28 1335.5,-183.28"/>
</a>
</g>
<g id="a_edge21&#45;label"><a xlink:title="reflect.valueInterface &#45;&gt; reflect.packEface (16513372)">
<text text-anchor="middle" x="1370.5" y="-194.8" font-family="Times,serif" font-size="14.00"> 16513372</text>
</a>
</g>
</g>
</g>
</g></svg>
